<?xml version="1.0" encoding="utf-8"?>
<!-- Generator: Adobe Illustrator 24.0.2, SVG Export Plug-In . SVG Version: 6.00 Build 0)  -->
<svg version="1.1" id="Layer_1" xmlns="http://www.w3.org/2000/svg" xmlns:xlink="http://www.w3.org/1999/xlink" x="0px" y="0px"
	 viewBox="0 0 70 70" style="enable-background:new 0 0 70 70;" xml:space="preserve">
<style type="text/css">
	.st0{fill:#FFFFFF;}
	.st1{fill:#1C2960;}
</style>
<path class="st0" d="M10,0h50c5.5,0,10,4.5,10,10v50c0,5.5-4.5,10-10,10H10C4.5,70,0,65.5,0,60V10C0,4.5,4.5,0,10,0z"/>
<path class="st1" d="M19.4,51.5V31.8c-0.9,0-1.8,0.4-2.4,1c-0.6,0.6-1,1.5-1,2.4v17C17.2,51.9,18.3,51.7,19.4,51.5z"/>
<path class="st1" d="M26.8,50.6V22.7c-1.1,0.1-2.1,0.6-2.8,1.3c-0.7,0.8-1.2,1.8-1.2,2.9v24C24.1,50.8,25.5,50.7,26.8,50.6z"/>
<path class="st1" d="M35,50.2c0.6,0,1.1,0,1.7,0V13c-1.4,0-2.7,0.6-3.7,1.5c-1,1-1.5,2.3-1.5,3.7v32C32.6,50.2,33.8,50.2,35,50.2z"
	/>
<path class="st1" d="M46.3,50.9V22.7c-1.1,0-2.2,0.4-3,1.2c-0.8,0.8-1.3,1.9-1.3,3v23.5C43.4,50.6,44.9,50.7,46.3,50.9z"/>
<path class="st1" d="M54,52.1V31.8c-0.4,0-0.9,0.1-1.3,0.3c-0.4,0.2-0.8,0.4-1.1,0.7c-0.3,0.3-0.6,0.7-0.7,1.1
	c-0.2,0.4-0.3,0.8-0.3,1.3v16.3C51.7,51.7,52.8,51.9,54,52.1z"/>
<path class="st1" d="M35,52.6c-11.6,0-22.2,2.1-30,5.4h60C57.2,54.7,46.6,52.6,35,52.6z"/>
</svg>
